<svg fill="#FFFFFF" viewBox="0 0 1432.67 520" xmlns="http://www.w3.org/2000/svg">
	<path d="M865.28,433q0,35.85-25.61,61.43T778.25,520q-36.88,0-62-25.59T691.2,433V260q0-35.81-25.61-60.9T605.19,174q-35.87,0-60.42,25.08T520.19,260V432q0,35.83-26.11,61.94t-62,26.09q-36.89,0-62-25.59T345.08,433V260q0-35.81-25.1-60.9T260.09,174q-35.85,0-60.93,25.16t-25.08,61.09V432.73q0,36-25.61,61.61T87.05,520q-36.9,0-62-25.64T0,432.83V260.52Q0,152.83,76.28,76.42T260.09,0q98.3,0,173.07,66.38Q505.85,0,605.19,0,712.7,0,789,76.27T865.28,260Z"/>
	<path d="M1432.67,87q0,35.84-25.61,61.42T1345.62,174H1159.27q-41,0-63.49,29.67-17.43,26.61-34.83,54.21-23.55,29.67-64.5,29.67Q960.6,287.55,935,262t-25.59-61.41a93.41,93.41,0,0,1,5.12-29.67q25.59-75.7,94.7-123.3T1159.27,0h186.35q35.85,0,61.44,25.59T1432.67,87Zm-1,232.3a87.76,87.76,0,0,1-5.12,29.68q-26.62,75.81-94.72,123.41t-149,47.61H996.44Q960.6,520,935,494.42T909.41,433q0-35.82,25.59-61.41T996.44,346h186.37q56.3,0,79.86-56.88t81.92-56.87q35.84,0,61.44,25.61T1431.64,319.3Z"/>
</svg>